<svg width="177" height="176" viewBox="0 0 177 176" fill="none" xmlns="http://www.w3.org/2000/svg">
<path d="M154.004 3.99976H46.0039C36.0628 3.99976 28.0039 12.0586 28.0039 21.9998V130C28.0039 139.941 36.0628 148 46.0039 148H154.004C163.945 148 172.004 139.941 172.004 130V21.9998C172.004 12.0586 163.945 3.99976 154.004 3.99976Z" stroke="#40425E" stroke-width="8" stroke-linecap="round" stroke-linejoin="round"/>
<path d="M28.0043 130V27.9998H22.0043C21.1205 28.0089 20.2384 28.0791 19.3643 28.2098L18.3743 28.3598C17.8257 28.4642 17.2846 28.6045 16.7543 28.7798H16.3943L15.0743 29.2598L14.0543 29.7697L13.5143 30.0098L12.3743 30.7298L12.0443 30.9098L11.2643 31.4798L10.6343 31.9598L10.0943 32.4697C9.84022 32.6739 9.5997 32.8943 9.37429 33.1298C7.65991 34.8038 6.30076 36.8063 5.37808 39.0176C4.4554 41.229 3.98816 43.6037 4.00431 45.9998V154C4.00631 156.384 4.48204 158.745 5.4039 160.944C6.32576 163.143 7.67534 165.137 9.37429 166.81L33.3743 142.81C31.6753 141.137 30.3258 139.143 29.4039 136.944C28.4821 134.745 28.0063 132.384 28.0043 130Z" stroke="#40425E" stroke-width="8" stroke-linecap="round" stroke-linejoin="round"/>
<path d="M145.875 162.52C146.145 162.014 146.386 161.493 146.595 160.96V160.75C146.775 160.27 146.955 159.82 147.105 159.31C147.119 159.16 147.119 159.009 147.105 158.86C147.105 158.44 147.345 158.02 147.435 157.6C147.45 157.32 147.45 157.04 147.435 156.76C147.435 156.43 147.435 156.13 147.585 155.83C147.616 155.22 147.616 154.609 147.585 154V148H46.005C41.2768 147.996 36.7399 146.131 33.375 142.81L9.375 166.81C12.7399 170.131 17.2768 171.996 22.005 172H130.005C132.389 171.998 134.75 171.522 136.949 170.6C139.148 169.678 141.142 168.329 142.815 166.63C143.997 165.402 145.006 164.02 145.815 162.52H145.875Z" stroke="#40425E" stroke-width="8" stroke-linecap="round" stroke-linejoin="round"/>
<path d="M148.002 154L152.002 154.004V154L148.002 154ZM142.812 166.63L139.966 163.82C138.418 165.388 138.43 167.913 139.992 169.467C141.555 171.021 144.08 171.018 145.639 169.461L142.812 166.63ZM167.052 142.42L169.879 145.25C169.904 145.226 169.928 145.201 169.952 145.175L167.052 142.42ZM172.002 130H168.002L168.002 130.005L172.002 130ZM144.002 153.997C143.999 157.674 142.549 161.203 139.966 163.82L145.659 169.44C149.719 165.328 151.998 159.783 152.002 154.004L144.002 153.997ZM145.639 169.461L169.879 145.25L164.226 139.59L139.986 163.8L145.639 169.461ZM169.952 145.175C173.843 141.08 176.01 135.644 176.002 129.995L168.002 130.005C168.007 133.6 166.628 137.059 164.152 139.665L169.952 145.175ZM172.002 130C176.002 130 176.002 130 176.002 129.999C176.002 129.999 176.002 129.997 176.002 129.996C176.002 129.995 176.002 129.993 176.002 129.991C176.002 129.989 176.002 129.986 176.002 129.983C176.002 129.981 176.002 129.977 176.002 129.974C176.002 129.97 176.002 129.966 176.002 129.962C176.002 129.958 176.002 129.953 176.002 129.949C176.002 129.944 176.002 129.938 176.002 129.933C176.002 129.927 176.002 129.921 176.002 129.915C176.002 129.909 176.002 129.902 176.002 129.895C176.002 129.888 176.002 129.881 176.002 129.873C176.002 129.866 176.002 129.858 176.002 129.849C176.002 129.841 176.002 129.832 176.002 129.823C176.002 129.814 176.002 129.805 176.002 129.795C176.002 129.786 176.002 129.775 176.002 129.765C176.002 129.755 176.002 129.744 176.002 129.733C176.002 129.722 176.002 129.711 176.002 129.699C176.002 129.687 176.002 129.675 176.002 129.663C176.002 129.651 176.002 129.638 176.002 129.625C176.002 129.612 176.002 129.598 176.002 129.585C176.002 129.571 176.002 129.557 176.002 129.543C176.002 129.528 176.002 129.514 176.002 129.499C176.002 129.484 176.002 129.468 176.002 129.453C176.002 129.437 176.002 129.421 176.002 129.405C176.002 129.389 176.002 129.372 176.002 129.355C176.002 129.338 176.002 129.321 176.002 129.303C176.002 129.286 176.002 129.268 176.002 129.249C176.002 129.231 176.002 129.213 176.002 129.194C176.002 129.175 176.002 129.156 176.002 129.136C176.002 129.117 176.002 129.097 176.002 129.077C176.002 129.057 176.002 129.036 176.002 129.015C176.002 128.995 176.002 128.974 176.002 128.952C176.002 128.931 176.002 128.909 176.002 128.887C176.002 128.865 176.002 128.843 176.002 128.82C176.002 128.797 176.002 128.774 176.002 128.751C176.002 128.728 176.002 128.704 176.002 128.68C176.002 128.657 176.002 128.632 176.002 128.608C176.002 128.583 176.002 128.558 176.002 128.533C176.002 128.508 176.002 128.483 176.002 128.457C176.002 128.431 176.002 128.405 176.002 128.379C176.002 128.353 176.002 128.326 176.002 128.299C176.002 128.272 176.002 128.245 176.002 128.217C176.002 128.19 176.002 128.162 176.002 128.134C176.002 128.106 176.002 128.077 176.002 128.048C176.002 128.02 176.002 127.991 176.002 127.961C176.002 127.932 176.002 127.902 176.002 127.872C176.002 127.842 176.002 127.812 176.002 127.782C176.002 127.751 176.002 127.72 176.002 127.689C176.002 127.658 176.002 127.627 176.002 127.595C176.002 127.563 176.002 127.531 176.002 127.499C176.002 127.467 176.002 127.434 176.002 127.401C176.002 127.368 176.002 127.335 176.002 127.302C176.002 127.268 176.002 127.234 176.002 127.2C176.002 127.166 176.002 127.132 176.002 127.097C176.002 127.063 176.002 127.028 176.002 126.993C176.002 126.958 176.002 126.922 176.002 126.886C176.002 126.851 176.002 126.815 176.002 126.778C176.002 126.742 176.002 126.705 176.002 126.669C176.002 126.632 176.002 126.595 176.002 126.557C176.002 126.52 176.002 126.482 176.002 126.444C176.002 126.406 176.002 126.368 176.002 126.329C176.002 126.291 176.002 126.252 176.002 126.213C176.002 126.174 176.002 126.134 176.002 126.095C176.002 126.055 176.002 126.015 176.002 125.975C176.002 125.935 176.002 125.894 176.002 125.854C176.002 125.813 176.002 125.772 176.002 125.73C176.002 125.689 176.002 125.648 176.002 125.606C176.002 125.564 176.002 125.522 176.002 125.48C176.002 125.437 176.002 125.395 176.002 125.352C176.002 125.309 176.002 125.266 176.002 125.222C176.002 125.179 176.002 125.135 176.002 125.091C176.002 125.047 176.002 125.003 176.002 124.958C176.002 124.914 176.002 124.869 176.002 124.824C176.002 124.779 176.002 124.734 176.002 124.688C176.002 124.643 176.002 124.597 176.002 124.551C176.002 124.505 176.002 124.459 176.002 124.412C176.002 124.366 176.002 124.319 176.002 124.272C176.002 124.225 176.002 124.177 176.002 124.13C176.002 124.082 176.002 124.034 176.002 123.986C176.002 123.938 176.002 123.89 176.002 123.841C176.002 123.792 176.002 123.744 176.002 123.695C176.002 123.645 176.002 123.596 176.002 123.546C176.002 123.497 176.002 123.447 176.002 123.397C176.002 123.347 176.002 123.296 176.002 123.246C176.002 123.195 176.002 123.144 176.002 123.093C176.002 123.042 176.002 122.991 176.002 122.939C176.002 122.887 176.002 122.836 176.002 122.784C176.002 122.731 176.002 122.679 176.002 122.627C176.002 122.574 176.002 122.521 176.002 122.468C176.002 122.415 176.002 122.362 176.002 122.308C176.002 122.255 176.002 122.201 176.002 122.147C176.002 122.093 176.002 122.039 176.002 121.984C176.002 121.93 176.002 121.875 176.002 121.82C176.002 121.765 176.002 121.71 176.002 121.654C176.002 121.599 176.002 121.543 176.002 121.487C176.002 121.431 176.002 121.375 176.002 121.319C176.002 121.263 176.002 121.206 176.002 121.149C176.002 121.092 176.002 121.035 176.002 120.978C176.002 120.921 176.002 120.863 176.002 120.805C176.002 120.748 176.002 120.69 176.002 120.631C176.002 120.573 176.002 120.515 176.002 120.456C176.002 120.397 176.002 120.338 176.002 120.279C176.002 120.22 176.002 120.161 176.002 120.101C176.002 120.042 176.002 119.982 176.002 119.922C176.002 119.862 176.002 119.802 176.002 119.741C176.002 119.681 176.002 119.62 176.002 119.559C176.002 119.498 176.002 119.437 176.002 119.376C176.002 119.315 176.002 119.253 176.002 119.191C176.002 119.129 176.002 119.067 176.002 119.005C176.002 118.943 176.002 118.881 176.002 118.818C176.002 118.755 176.002 118.693 176.002 118.629C176.002 118.566 176.002 118.503 176.002 118.44C176.002 118.376 176.002 118.312 176.002 118.249C176.002 118.185 176.002 118.121 176.002 118.056C176.002 117.992 176.002 117.927 176.002 117.863C176.002 117.798 176.002 117.733 176.002 117.668C176.002 117.603 176.002 117.537 176.002 117.472C176.002 117.406 176.002 117.34 176.002 117.274C176.002 117.208 176.002 117.142 176.002 117.076C176.002 117.009 176.002 116.943 176.002 116.876C176.002 116.809 176.002 116.742 176.002 116.675C176.002 116.608 176.002 116.54 176.002 116.473C176.002 116.405 176.002 116.337 176.002 116.269C176.002 116.201 176.002 116.133 176.002 116.065C176.002 115.996 176.002 115.928 176.002 115.859C176.002 115.79 176.002 115.721 176.002 115.652C176.002 115.583 176.002 115.513 176.002 115.444C176.002 115.374 176.002 115.305 176.002 115.235C176.002 115.165 176.002 115.095 176.002 115.024C176.002 114.954 176.002 114.883 176.002 114.813C176.002 114.742 176.002 114.671 176.002 114.6C176.002 114.529 176.002 114.458 176.002 114.386C176.002 114.315 176.002 114.243 176.002 114.171C176.002 114.099 176.002 114.027 176.002 113.955C176.002 113.883 176.002 113.811 176.002 113.738C176.002 113.665 176.002 113.593 176.002 113.52C176.002 113.447 176.002 113.374 176.002 113.3C176.002 113.227 176.002 113.154 176.002 113.08C176.002 113.006 176.002 112.933 176.002 112.859C176.002 112.785 176.002 112.71 176.002 112.636C176.002 112.562 176.002 112.487 176.002 112.412C176.002 112.338 176.002 112.263 176.002 112.188C176.002 112.113 176.002 112.037 176.002 111.962C176.002 111.887 176.002 111.811 176.002 111.735C176.002 111.659 176.002 111.584 176.002 111.507C176.002 111.431 176.002 111.355 176.002 111.279C176.002 111.202 176.002 111.126 176.002 111.049C176.002 110.972 176.002 110.895 176.002 110.818C176.002 110.741 176.002 110.664 176.002 110.586C176.002 110.509 176.002 110.431 176.002 110.353C176.002 110.276 176.002 110.198 176.002 110.12C176.002 110.042 176.002 109.963 176.002 109.885C176.002 109.806 176.002 109.728 176.002 109.649C176.002 109.57 176.002 109.492 176.002 109.413C176.002 109.333 176.002 109.254 176.002 109.175C176.002 109.096 176.002 109.016 176.002 108.936C176.002 108.857 176.002 108.777 176.002 108.697C176.002 108.617 176.002 108.537 176.002 108.456C176.002 108.376 176.002 108.296 176.002 108.215C176.002 108.134 176.002 108.054 176.002 107.973C176.002 107.892 176.002 107.811 176.002 107.73C176.002 107.648 176.002 107.567 176.002 107.485C176.002 107.404 176.002 107.322 176.002 107.24C176.002 107.159 176.002 107.077 176.002 106.995C176.002 106.913 176.002 106.83 176.002 106.748C176.002 106.666 176.002 106.583 176.002 106.5C176.002 106.418 176.002 106.335 176.002 106.252C176.002 106.169 176.002 106.086 176.002 106.003C176.002 105.919 176.002 105.836 176.002 105.752C176.002 105.669 176.002 105.585 176.002 105.501C176.002 105.418 176.002 105.334 176.002 105.25C176.002 105.166 176.002 105.081 176.002 104.997C176.002 104.913 176.002 104.828 176.002 104.744C176.002 104.659 176.002 104.574 176.002 104.489C176.002 104.404 176.002 104.319 176.002 104.234C176.002 104.149 176.002 104.064 176.002 103.978C176.002 103.893 176.002 103.807 176.002 103.722C176.002 103.636 176.002 103.55 176.002 103.464C176.002 103.378 176.002 103.292 176.002 103.206C176.002 103.12 176.002 103.034 176.002 102.947C176.002 102.861 176.002 102.774 176.002 102.688C176.002 102.601 176.002 102.514 176.002 102.427C176.002 102.34 176.002 102.253 176.002 102.166C176.002 102.079 176.002 101.991 176.002 101.904C176.002 101.817 176.002 101.729 176.002 101.641C176.002 101.554 176.002 101.466 176.002 101.378C176.002 101.29 176.002 101.202 176.002 101.114C176.002 101.026 176.002 100.938 176.002 100.849C176.002 100.761 176.002 100.672 176.002 100.584C176.002 100.495 176.002 100.407 176.002 100.318C176.002 100.229 176.002 100.14 176.002 100.051C176.002 99.9619 176.002 99.8728 176.002 99.7835C176.002 99.6942 176.002 99.6049 176.002 99.5154C176.002 99.4259 176.002 99.3363 176.002 99.2466C176.002 99.1569 176.002 99.0671 176.002 98.9772C176.002 98.8873 176.002 98.7972 176.002 98.7071C176.002 98.617 176.002 98.5268 176.002 98.4364C176.002 98.3461 176.002 98.2557 176.002 98.1651C176.002 98.0746 176.002 97.9839 176.002 97.8932C176.002 97.8025 176.002 97.7116 176.002 97.6207C176.002 97.5297 176.002 97.4387 176.002 97.3475C176.002 97.2564 176.002 97.1651 176.002 97.0738C176.002 96.9825 176.002 96.891 176.002 96.7995C176.002 96.708 176.002 96.6163 176.002 96.5246C176.002 96.4329 176.002 96.3411 176.002 96.2492C176.002 96.1572 176.002 96.0652 176.002 95.9731C176.002 95.881 176.002 95.7888 176.002 95.6966C176.002 95.6043 176.002 95.5119 176.002 95.4195C176.002 95.327 176.002 95.2344 176.002 95.1418C176.002 95.0492 176.002 94.9564 176.002 94.8636C176.002 94.7708 176.002 94.6779 176.002 94.5849C176.002 94.4919 176.002 94.3988 176.002 94.3057C176.002 94.2125 176.002 94.1193 176.002 94.0259C176.002 93.9326 176.002 93.8392 176.002 93.7457C176.002 93.6522 176.002 93.5586 176.002 93.465C176.002 93.3713 176.002 93.2776 176.002 93.1838C176.002 93.0899 176.002 92.9961 176.002 92.9021C176.002 92.8081 176.002 92.714 176.002 92.6199C176.002 92.5258 176.002 92.4316 176.002 92.3373C176.002 92.243 176.002 92.1487 176.002 92.0542C176.002 91.9598 176.002 91.8653 176.002 91.7707C176.002 91.6761 176.002 91.5815 176.002 91.4867C176.002 91.392 176.002 91.2972 176.002 91.2023C176.002 91.1075 176.002 91.0125 176.002 90.9175C176.002 90.8225 176.002 90.7274 176.002 90.6323C176.002 90.5371 176.002 90.4419 176.002 90.3467C176.002 90.2514 176.002 90.156 176.002 90.0606C176.002 89.9652 176.002 89.8697 176.002 89.7742C176.002 89.6786 176.002 89.583 176.002 89.4873C176.002 89.3917 176.002 89.2959 176.002 89.2001C176.002 89.1044 176.002 89.0085 176.002 88.9126C176.002 88.8167 176.002 88.7207 176.002 88.6246C176.002 88.5286 176.002 88.4325 176.002 88.3364C176.002 88.2402 176.002 88.144 176.002 88.0477C176.002 87.9514 176.002 87.8551 176.002 87.7587C176.002 87.6624 176.002 87.5659 176.002 87.4694C176.002 87.3729 176.002 87.2764 176.002 87.1798C176.002 87.0832 176.002 86.9866 176.002 86.8899C176.002 86.7931 176.002 86.6964 176.002 86.5996C176.002 86.5028 176.002 86.4059 176.002 86.309C176.002 86.2121 176.002 86.1152 176.002 86.0182C176.002 85.9212 176.002 85.8241 176.002 85.727C176.002 85.6299 176.002 85.5328 176.002 85.4356C176.002 85.3384 176.002 85.2412 176.002 85.1439C176.002 85.0467 176.002 84.9493 176.002 84.852C176.002 84.7546 176.002 84.6572 176.002 84.5598C176.002 84.4623 176.002 84.3648 176.002 84.2673C176.002 84.1698 176.002 84.0722 176.002 83.9746C176.002 83.877 176.002 83.7794 176.002 83.6817C176.002 83.584 176.002 83.4863 176.002 83.3885C176.002 83.2908 176.002 83.193 176.002 83.0951C176.002 82.9973 176.002 82.8995 176.002 82.8016C176.002 82.7037 176.002 82.6057 176.002 82.5078C176.002 82.4098 176.002 82.3118 176.002 82.2138C176.002 82.1158 176.002 82.0177 176.002 81.9196C176.002 81.8215 176.002 81.7234 176.002 81.6253C176.002 81.5271 176.002 81.429 176.002 81.3308C176.002 81.2326 176.002 81.1343 176.002 81.0361C176.002 80.9378 176.002 80.8395 176.002 80.7412C176.002 80.6429 176.002 80.5446 176.002 80.4463C176.002 80.3479 176.002 80.2495 176.002 80.1511C176.002 80.0527 176.002 79.9543 176.002 79.8559C176.002 79.7574 176.002 79.659 176.002 79.5605C176.002 79.462 176.002 79.3635 176.002 79.265C176.002 79.1665 176.002 79.0679 176.002 78.9694C176.002 78.8708 176.002 78.7722 176.002 78.6736C176.002 78.5751 176.002 78.4764 176.002 78.3778C176.002 78.2792 176.002 78.1806 176.002 78.0819C176.002 77.9833 176.002 77.8846 176.002 77.7859C176.002 77.6873 176.002 77.5886 176.002 77.4899C176.002 77.3912 176.002 77.2925 176.002 77.1938C176.002 77.0951 176.002 76.9963 176.002 76.8976C176.002 76.7989 176.002 76.7001 176.002 76.6014C176.002 76.5026 176.002 76.4039 176.002 76.3051C176.002 76.2063 176.002 76.1076 176.002 76.0088C176.002 75.91 176.002 75.8113 176.002 75.7125C176.002 75.6137 176.002 75.5149 176.002 75.4161C176.002 75.3173 176.002 75.2186 176.002 75.1198C176.002 75.021 176.002 74.9222 176.002 74.8234C176.002 74.7246 176.002 74.6258 176.002 74.5271C176.002 74.4283 176.002 74.3295 176.002 74.2307C176.002 74.1319 176.002 74.0332 176.002 73.9344C176.002 73.8356 176.002 73.7368 176.002 73.6381C176.002 73.5393 176.002 73.4406 176.002 73.3418C176.002 73.2431 176.002 73.1443 176.002 73.0456C176.002 72.9469 176.002 72.8481 176.002 72.7494C176.002 72.6507 176.002 72.552 176.002 72.4533C176.002 72.3546 176.002 72.2559 176.002 72.1573C176.002 72.0586 176.002 71.9599 176.002 71.8613C176.002 71.7626 176.002 71.664 176.002 71.5654C176.002 71.4668 176.002 71.3682 176.002 71.2696C176.002 71.171 176.002 71.0724 176.002 70.9739C176.002 70.8753 176.002 70.7768 176.002 70.6783C176.002 70.5798 176.002 70.4813 176.002 70.3828C176.002 70.2843 176.002 70.1858 176.002 70.0874C176.002 69.989 176.002 69.8905 176.002 69.7921C176.002 69.6938 176.002 69.5954 176.002 69.497C176.002 69.3987 176.002 69.3004 176.002 69.2021C176.002 69.1038 176.002 69.0055 176.002 68.9072C176.002 68.809 176.002 68.7108 176.002 68.6126C176.002 68.5144 176.002 68.4162 176.002 68.3181C176.002 68.2199 176.002 68.1218 176.002 68.0237C176.002 67.9256 176.002 67.8276 176.002 67.7296C176.002 67.6316 176.002 67.5336 176.002 67.4356C176.002 67.3377 176.002 67.2397 176.002 67.1418C176.002 67.044 176.002 66.9461 176.002 66.8483C176.002 66.7505 176.002 66.6527 176.002 66.5549C176.002 66.4572 176.002 66.3595 176.002 66.2618C176.002 66.1641 176.002 66.0665 176.002 65.9689C176.002 65.8713 176.002 65.7737 176.002 65.6762C176.002 65.5787 176.002 65.4812 176.002 65.3838C176.002 65.2863 176.002 65.1889 176.002 65.0916C176.002 64.9942 176.002 64.8969 176.002 64.7996C176.002 64.7024 176.002 64.6052 176.002 64.508C176.002 64.4108 176.002 64.3137 176.002 64.2166C176.002 64.1195 176.002 64.0225 176.002 63.9255C176.002 63.8285 176.002 63.7315 176.002 63.6346C176.002 63.5377 176.002 63.4409 176.002 63.3441C176.002 63.2473 176.002 63.1506 176.002 63.0539C176.002 62.9572 176.002 62.8605 176.002 62.764C176.002 62.6674 176.002 62.5708 176.002 62.4743C176.002 62.3779 176.002 62.2814 176.002 62.1851C176.002 62.0887 176.002 61.9924 176.002 61.8961C176.002 61.7999 176.002 61.7037 176.002 61.6075C176.002 61.5114 176.002 61.4153 176.002 61.3193C176.002 61.2232 176.002 61.1273 176.002 61.0314C176.002 60.9354 176.002 60.8396 176.002 60.7438C176.002 60.648 176.002 60.5523 176.002 60.4567C176.002 60.361 176.002 60.2654 176.002 60.1699C176.002 60.0743 176.002 59.9789 176.002 59.8835C176.002 59.7881 176.002 59.6927 176.002 59.5975C176.002 59.5022 176.002 59.407 176.002 59.3118C176.002 59.2167 176.002 59.1216 176.002 59.0267C176.002 58.9317 176.002 58.8367 176.002 58.7419C176.002 58.647 176.002 58.5522 176.002 58.4575C176.002 58.3628 176.002 58.2682 176.002 58.1736C176.002 58.079 176.002 57.9845 176.002 57.8901C176.002 57.7957 176.002 57.7013 176.002 57.6071C176.002 57.5128 176.002 57.4186 176.002 57.3245C176.002 57.2304 176.002 57.1363 176.002 57.0424C176.002 56.9484 176.002 56.8545 176.002 56.7607C176.002 56.6669 176.002 56.5732 176.002 56.4796C176.002 56.3859 176.002 56.2923 176.002 56.1989C176.002 56.1054 176.002 56.012 176.002 55.9187C176.002 55.8254 176.002 55.7321 176.002 55.639C176.002 55.5458 176.002 55.4528 176.002 55.3598C176.002 55.2668 176.002 55.1739 176.002 55.0811C176.002 54.9883 176.002 54.8956 176.002 54.803C176.002 54.7104 176.002 54.6178 176.002 54.5254C176.002 54.433 176.002 54.3406 176.002 54.2483C176.002 54.1561 176.002 54.0639 176.002 53.9718C176.002 53.8797 176.002 53.7877 176.002 53.6958C176.002 53.6039 176.002 53.5121 176.002 53.4204C176.002 53.3287 176.002 53.2371 176.002 53.1456C176.002 53.0541 176.002 52.9627 176.002 52.8713C176.002 52.78 176.002 52.6888 176.002 52.5977C176.002 52.5065 176.002 52.4155 176.002 52.3246C176.002 52.2337 176.002 52.1428 176.002 52.0521C176.002 51.9614 176.002 51.8708 176.002 51.7802C176.002 51.6897 176.002 51.5993 176.002 51.509C176.002 51.4187 176.002 51.3284 176.002 51.2383C176.002 51.1482 176.002 51.0582 176.002 50.9683C176.002 50.8784 176.002 50.7887 176.002 50.699C176.002 50.6093 176.002 50.5197 176.002 50.4303C176.002 50.3408 176.002 50.2514 176.002 50.1622C176.002 50.0729 176.002 49.9838 176.002 49.8948C176.002 49.8058 176.002 49.7169 176.002 49.6281C176.002 49.5393 176.002 49.4506 176.002 49.362C176.002 49.2734 176.002 49.185 176.002 49.0966C176.002 49.0083 176.002 48.9201 176.002 48.832C176.002 48.7438 176.002 48.6558 176.002 48.568C176.002 48.4801 176.002 48.3923 176.002 48.3047C176.002 48.2171 176.002 48.1295 176.002 48.0421C176.002 47.9547 176.002 47.8675 176.002 47.7803C176.002 47.6932 176.002 47.6061 176.002 47.5192C176.002 47.4323 176.002 47.3455 176.002 47.2588C176.002 47.1722 176.002 47.0856 176.002 46.9992C176.002 46.9128 176.002 46.8265 176.002 46.7404C176.002 46.6542 176.002 46.5682 176.002 46.4822C176.002 46.3963 176.002 46.3106 176.002 46.2249C176.002 46.1393 176.002 46.0537 176.002 45.9684C176.002 45.883 176.002 45.7977 176.002 45.7126C176.002 45.6274 176.002 45.5425 176.002 45.4576C176.002 45.3727 176.002 45.288 176.002 45.2034C176.002 45.1188 176.002 45.0343 176.002 44.95C176.002 44.8657 176.002 44.7815 176.002 44.6975C176.002 44.6134 176.002 44.5295 176.002 44.4457C176.002 44.3619 176.002 44.2783 176.002 44.1948C176.002 44.1113 176.002 44.0279 176.002 43.9447C176.002 43.8615 176.002 43.7784 176.002 43.6955C176.002 43.6126 176.002 43.5298 176.002 43.4471C176.002 43.3645 176.002 43.282 176.002 43.1996C176.002 43.1172 176.002 43.035 176.002 42.9529C176.002 42.8709 176.002 42.789 176.002 42.7072C176.002 42.6254 176.002 42.5438 176.002 42.4623C176.002 42.3808 176.002 42.2995 176.002 42.2183C176.002 42.1371 176.002 42.0561 176.002 41.9752C176.002 41.8943 176.002 41.8136 176.002 41.733C176.002 41.6524 176.002 41.572 176.002 41.4917C176.002 41.4114 176.002 41.3313 176.002 41.2513C176.002 41.1714 176.002 41.0916 176.002 41.0119C176.002 40.9323 176.002 40.8528 176.002 40.7734C176.002 40.6941 176.002 40.6149 176.002 40.5359C176.002 40.4568 176.002 40.378 176.002 40.2993C176.002 40.2206 176.002 40.142 176.002 40.0636C176.002 39.9852 176.002 39.907 176.002 39.829C176.002 39.7509 176.002 39.673 176.002 39.5953C176.002 39.5175 176.002 39.44 176.002 39.3626C176.002 39.2851 176.002 39.2079 176.002 39.1308C176.002 39.0538 176.002 38.9768 176.002 38.9001C176.002 38.8234 176.002 38.7468 176.002 38.6704C176.002 38.594 176.002 38.5177 176.002 38.4417C176.002 38.3656 176.002 38.2897 176.002 38.214C176.002 38.1383 176.002 38.0627 176.002 37.9873C176.002 37.912 176.002 37.8368 176.002 37.7617C176.002 37.6867 176.002 37.6118 176.002 37.5371C176.002 37.4625 176.002 37.3879 176.002 37.3136C176.002 37.2393 176.002 37.1651 176.002 37.0911C176.002 37.0172 176.002 36.9434 176.002 36.8697C176.002 36.7961 176.002 36.7227 176.002 36.6494C176.002 36.5762 176.002 36.5031 176.002 36.4302C176.002 36.3573 176.002 36.2846 176.002 36.212C176.002 36.1395 176.002 36.0671 176.002 35.995C176.002 35.9228 176.002 35.8508 176.002 35.779C176.002 35.7072 176.002 35.6356 176.002 35.5642C176.002 35.4928 176.002 35.4215 176.002 35.3505C176.002 35.2794 176.002 35.2085 176.002 35.1379C176.002 35.0672 176.002 34.9967 176.002 34.9264C176.002 34.8561 176.002 34.786 176.002 34.7161C176.002 34.6462 176.002 34.5765 176.002 34.5069C176.002 34.4374 176.002 34.3681 176.002 34.2989C176.002 34.2298 176.002 34.1609 176.002 34.0921C176.002 34.0234 176.002 33.9548 176.002 33.8864C176.002 33.8181 176.002 33.7499 176.002 33.682C176.002 33.614 176.002 33.5462 176.002 33.4787C176.002 33.4111 176.002 33.3437 176.002 33.2766C176.002 33.2094 176.002 33.1424 176.002 33.0757C176.002 33.0089 176.002 32.9424 176.002 32.876C176.002 32.8096 176.002 32.7435 176.002 32.6775C176.002 32.6116 176.002 32.5458 176.002 32.4803C176.002 32.4148 176.002 32.3494 176.002 32.2843C176.002 32.2192 176.002 32.1543 176.002 32.0896C176.002 32.0248 176.002 31.9603 176.002 31.896C176.002 31.8318 176.002 31.7677 176.002 31.7038C176.002 31.6399 176.002 31.5763 176.002 31.5128C176.002 31.4494 176.002 31.3861 176.002 31.3231C176.002 31.2601 176.002 31.1973 176.002 31.1347C176.002 31.0721 176.002 31.0097 176.002 30.9475C176.002 30.8854 176.002 30.8234 176.002 30.7617C176.002 30.7 176.002 30.6385 176.002 30.5772C176.002 30.5159 176.002 30.4548 176.002 30.3939C176.002 30.3331 176.002 30.2724 176.002 30.212C176.002 30.1516 176.002 30.0914 176.002 30.0314C176.002 29.9715 176.002 29.9117 176.002 29.8522C176.002 29.7927 176.002 29.7334 176.002 29.6743C176.002 29.6152 176.002 29.5563 176.002 29.4977C176.002 29.4391 176.002 29.3807 176.002 29.3225C176.002 29.2643 176.002 29.2064 176.002 29.1487C176.002 29.091 176.002 29.0335 176.002 28.9762C176.002 28.919 176.002 28.8619 176.002 28.8051C176.002 28.7483 176.002 28.6918 176.002 28.6354C176.002 28.5791 176.002 28.523 176.002 28.4671C176.002 28.4113 176.002 28.3556 176.002 28.3002C176.002 28.2449 176.002 28.1897 176.002 28.1348C176.002 28.0798 176.002 28.0251 176.002 27.9707C176.002 27.9162 176.002 27.862 176.002 27.8081C176.002 27.7541 176.002 27.7003 176.002 27.6468C176.002 27.5934 176.002 27.5401 176.002 27.4871C176.002 27.4341 176.002 27.3813 176.002 27.3288C176.002 27.2762 176.002 27.2239 176.002 27.1719C176.002 27.1199 176.002 27.0681 176.002 27.0165C176.002 26.965 176.002 26.9136 176.002 26.8626C176.002 26.8115 176.002 26.7607 176.002 26.7101C176.002 26.6596 176.002 26.6092 176.002 26.5592C176.002 26.5091 176.002 26.4593 176.002 26.4097C176.002 26.3601 176.002 26.3108 176.002 26.2618C176.002 26.2127 176.002 26.1639 176.002 26.1153C176.002 26.0667 176.002 26.0184 176.002 25.9704C176.002 25.9223 176.002 25.8745 176.002 25.827C176.002 25.7794 176.002 25.7321 176.002 25.6851C176.002 25.6381 176.002 25.5913 176.002 25.5448C176.002 25.4982 176.002 25.452 176.002 25.406C176.002 25.36 176.002 25.3142 176.002 25.2687C176.002 25.2233 176.002 25.178 176.002 25.1331C176.002 25.0881 176.002 25.0434 176.002 24.999C176.002 24.9545 176.002 24.9104 176.002 24.8665C176.002 24.8226 176.002 24.7789 176.002 24.7355C176.002 24.6922 176.002 24.649 176.002 24.6062C176.002 24.5634 176.002 24.5208 176.002 24.4785C176.002 24.4362 176.002 24.3941 176.002 24.3523C176.002 24.3106 176.002 24.2691 176.002 24.2278C176.002 24.1866 176.002 24.1456 176.002 24.1049C176.002 24.0643 176.002 24.0238 176.002 23.9837C176.002 23.9436 176.002 23.9037 176.002 23.8641C176.002 23.8245 176.002 23.7852 176.002 23.7461C176.002 23.7071 176.002 23.6683 176.002 23.6298C176.002 23.5913 176.002 23.5531 176.002 23.5152C176.002 23.4772 176.002 23.4396 176.002 23.4022C176.002 23.3648 176.002 23.3277 176.002 23.2909C176.002 23.2541 176.002 23.2176 176.002 23.1813C176.002 23.145 176.002 23.1091 176.002 23.0734C176.002 23.0377 176.002 23.0023 176.002 22.9672C176.002 22.932 176.002 22.8972 176.002 22.8627C176.002 22.8281 176.002 22.7938 176.002 22.7599C176.002 22.7259 176.002 22.6922 176.002 22.6588C176.002 22.6254 176.002 22.5923 176.002 22.5595C176.002 22.5267 176.002 22.4941 176.002 22.4619C176.002 22.4296 176.002 22.3977 176.002 22.366C176.002 22.3344 176.002 22.303 176.002 22.2719C176.002 22.2409 176.002 22.2101 176.002 22.1796C176.002 22.1491 176.002 22.1189 176.002 22.0891C176.002 22.0592 176.002 22.0296 176.002 22.0003H168.002C168.002 22.0296 168.002 22.0592 168.002 22.0891C168.002 22.1189 168.002 22.1491 168.002 22.1796C168.002 22.2101 168.002 22.2409 168.002 22.2719C168.002 22.303 168.002 22.3344 168.002 22.366C168.002 22.3977 168.002 22.4296 168.002 22.4619C168.002 22.4941 168.002 22.5267 168.002 22.5595C168.002 22.5923 168.002 22.6254 168.002 22.6588C168.002 22.6922 168.002 22.7259 168.002 22.7599C168.002 22.7938 168.002 22.8281 168.002 22.8627C168.002 22.8972 168.002 22.932 168.002 22.9672C168.002 23.0023 168.002 23.0377 168.002 23.0734C168.002 23.1091 168.002 23.145 168.002 23.1813C168.002 23.2176 168.002 23.2541 168.002 23.2909C168.002 23.3277 168.002 23.3648 168.002 23.4022C168.002 23.4396 168.002 23.4772 168.002 23.5152C168.002 23.5531 168.002 23.5913 168.002 23.6298C168.002 23.6683 168.002 23.7071 168.002 23.7461C168.002 23.7852 168.002 23.8245 168.002 23.8641C168.002 23.9037 168.002 23.9436 168.002 23.9837C168.002 24.0238 168.002 24.0643 168.002 24.1049C168.002 24.1456 168.002 24.1866 168.002 24.2278C168.002 24.2691 168.002 24.3106 168.002 24.3523C168.002 24.3941 168.002 24.4362 168.002 24.4785C168.002 24.5208 168.002 24.5634 168.002 24.6062C168.002 24.649 168.002 24.6922 168.002 24.7355C168.002 24.7789 168.002 24.8226 168.002 24.8665C168.002 24.9104 168.002 24.9545 168.002 24.999C168.002 25.0434 168.002 25.0881 168.002 25.1331C168.002 25.178 168.002 25.2233 168.002 25.2687C168.002 25.3142 168.002 25.36 168.002 25.406C168.002 25.452 168.002 25.4982 168.002 25.5448C168.002 25.5913 168.002 25.6381 168.002 25.6851C168.002 25.7321 168.002 25.7794 168.002 25.827C168.002 25.8745 168.002 25.9223 168.002 25.9704C168.002 26.0184 168.002 26.0667 168.002 26.1153C168.002 26.1639 168.002 26.2127 168.002 26.2618C168.002 26.3108 168.002 26.3601 168.002 26.4097C168.002 26.4593 168.002 26.5091 168.002 26.5592C168.002 26.6092 168.002 26.6596 168.002 26.7101C168.002 26.7607 168.002 26.8115 168.002 26.8626C168.002 26.9136 168.002 26.965 168.002 27.0165C168.002 27.0681 168.002 27.1199 168.002 27.1719C168.002 27.2239 168.002 27.2762 168.002 27.3288C168.002 27.3813 168.002 27.4341 168.002 27.4871C168.002 27.5401 168.002 27.5934 168.002 27.6468C168.002 27.7003 168.002 27.7541 168.002 27.8081C168.002 27.862 168.002 27.9162 168.002 27.9707C168.002 28.0251 168.002 28.0798 168.002 28.1348C168.002 28.1897 168.002 28.2449 168.002 28.3002C168.002 28.3556 168.002 28.4113 168.002 28.4671C168.002 28.523 168.002 28.5791 168.002 28.6354C168.002 28.6918 168.002 28.7483 168.002 28.8051C168.002 28.8619 168.002 28.919 168.002 28.9762C168.002 29.0335 168.002 29.091 168.002 29.1487C168.002 29.2064 168.002 29.2643 168.002 29.3225C168.002 29.3807 168.002 29.4391 168.002 29.4977C168.002 29.5563 168.002 29.6152 168.002 29.6743C168.002 29.7334 168.002 29.7927 168.002 29.8522C168.002 29.9117 168.002 29.9715 168.002 30.0314C168.002 30.0914 168.002 30.1516 168.002 30.212C168.002 30.2724 168.002 30.3331 168.002 30.3939C168.002 30.4548 168.002 30.5159 168.002 30.5772C168.002 30.6385 168.002 30.7 168.002 30.7617C168.002 30.8234 168.002 30.8854 168.002 30.9475C168.002 31.0097 168.002 31.0721 168.002 31.1347C168.002 31.1973 168.002 31.2601 168.002 31.3231C168.002 31.3861 168.002 31.4494 168.002 31.5128C168.002 31.5763 168.002 31.6399 168.002 31.7038C168.002 31.7677 168.002 31.8318 168.002 31.896C168.002 31.9603 168.002 32.0248 168.002 32.0896C168.002 32.1543 168.002 32.2192 168.002 32.2843C168.002 32.3494 168.002 32.4148 168.002 32.4803C168.002 32.5458 168.002 32.6116 168.002 32.6775C168.002 32.7435 168.002 32.8096 168.002 32.876C168.002 32.9424 168.002 33.0089 168.002 33.0757C168.002 33.1424 168.002 33.2094 168.002 33.2766C168.002 33.3437 168.002 33.4111 168.002 33.4787C168.002 33.5462 168.002 33.614 168.002 33.682C168.002 33.7499 168.002 33.8181 168.002 33.8864C168.002 33.9548 168.002 34.0234 168.002 34.0921C168.002 34.1609 168.002 34.2298 168.002 34.2989C168.002 34.3681 168.002 34.4374 168.002 34.5069C168.002 34.5765 168.002 34.6462 168.002 34.7161C168.002 34.786 168.002 34.8561 168.002 34.9264C168.002 34.9967 168.002 35.0672 168.002 35.1379C168.002 35.2085 168.002 35.2794 168.002 35.3505C168.002 35.4215 168.002 35.4928 168.002 35.5642C168.002 35.6356 168.002 35.7072 168.002 35.779C168.002 35.8508 168.002 35.9228 168.002 35.995C168.002 36.0671 168.002 36.1395 168.002 36.212C168.002 36.2846 168.002 36.3573 168.002 36.4302C168.002 36.5031 168.002 36.5762 168.002 36.6494C168.002 36.7227 168.002 36.7961 168.002 36.8697C168.002 36.9434 168.002 37.0172 168.002 37.0911C168.002 37.1651 168.002 37.2393 168.002 37.3136C168.002 37.3879 168.002 37.4625 168.002 37.5371C168.002 37.6118 168.002 37.6867 168.002 37.7617C168.002 37.8368 168.002 37.912 168.002 37.9873C168.002 38.0627 168.002 38.1383 168.002 38.214C168.002 38.2897 168.002 38.3656 168.002 38.4417C168.002 38.5177 168.002 38.594 168.002 38.6704C168.002 38.7468 168.002 38.8234 168.002 38.9001C168.002 38.9768 168.002 39.0538 168.002 39.1308C168.002 39.2079 168.002 39.2851 168.002 39.3626C168.002 39.44 168.002 39.5175 168.002 39.5953C168.002 39.673 168.002 39.7509 168.002 39.829C168.002 39.907 168.002 39.9852 168.002 40.0636C168.002 40.142 168.002 40.2206 168.002 40.2993C168.002 40.378 168.002 40.4568 168.002 40.5359C168.002 40.6149 168.002 40.6941 168.002 40.7734C168.002 40.8528 168.002 40.9323 168.002 41.0119C168.002 41.0916 168.002 41.1714 168.002 41.2513C168.002 41.3313 168.002 41.4114 168.002 41.4917C168.002 41.572 168.002 41.6524 168.002 41.733C168.002 41.8136 168.002 41.8943 168.002 41.9752C168.002 42.0561 168.002 42.1371 168.002 42.2183C168.002 42.2995 168.002 42.3808 168.002 42.4623C168.002 42.5438 168.002 42.6254 168.002 42.7072C168.002 42.789 168.002 42.8709 168.002 42.9529C168.002 43.035 168.002 43.1172 168.002 43.1996C168.002 43.282 168.002 43.3645 168.002 43.4471C168.002 43.5298 168.002 43.6126 168.002 43.6955C168.002 43.7784 168.002 43.8615 168.002 43.9447C168.002 44.0279 168.002 44.1113 168.002 44.1948C168.002 44.2783 168.002 44.3619 168.002 44.4457C168.002 44.5295 168.002 44.6134 168.002 44.6975C168.002 44.7815 168.002 44.8657 168.002 44.95C168.002 45.0343 168.002 45.1188 168.002 45.2034C168.002 45.288 168.002 45.3727 168.002 45.4576C168.002 45.5425 168.002 45.6274 168.002 45.7126C168.002 45.7977 168.002 45.883 168.002 45.9684C168.002 46.0537 168.002 46.1393 168.002 46.2249C168.002 46.3106 168.002 46.3963 168.002 46.4822C168.002 46.5682 168.002 46.6542 168.002 46.7404C168.002 46.8265 168.002 46.9128 168.002 46.9992C168.002 47.0856 168.002 47.1722 168.002 47.2588C168.002 47.3455 168.002 47.4323 168.002 47.5192C168.002 47.6061 168.002 47.6932 168.002 47.7803C168.002 47.8675 168.002 47.9547 168.002 48.0421C168.002 48.1295 168.002 48.2171 168.002 48.3047C168.002 48.3923 168.002 48.4801 168.002 48.568C168.002 48.6558 168.002 48.7438 168.002 48.832C168.002 48.9201 168.002 49.0083 168.002 49.0966C168.002 49.185 168.002 49.2734 168.002 49.362C168.002 49.4506 168.002 49.5393 168.002 49.6281C168.002 49.7169 168.002 49.8058 168.002 49.8948C168.002 49.9838 168.002 50.0729 168.002 50.1622C168.002 50.2514 168.002 50.3408 168.002 50.4303C168.002 50.5197 168.002 50.6093 168.002 50.699C168.002 50.7887 168.002 50.8784 168.002 50.9683C168.002 51.0582 168.002 51.1482 168.002 51.2383C168.002 51.3284 168.002 51.4187 168.002 51.509C168.002 51.5993 168.002 51.6897 168.002 51.7802C168.002 51.8708 168.002 51.9614 168.002 52.0521C168.002 52.1428 168.002 52.2337 168.002 52.3246C168.002 52.4155 168.002 52.5065 168.002 52.5977C168.002 52.6888 168.002 52.78 168.002 52.8713C168.002 52.9627 168.002 53.0541 168.002 53.1456C168.002 53.2371 168.002 53.3287 168.002 53.4204C168.002 53.5121 168.002 53.6039 168.002 53.6958C168.002 53.7877 168.002 53.8797 168.002 53.9718C168.002 54.0639 168.002 54.1561 168.002 54.2483C168.002 54.3406 168.002 54.433 168.002 54.5254C168.002 54.6178 168.002 54.7104 168.002 54.803C168.002 54.8956 168.002 54.9883 168.002 55.0811C168.002 55.1739 168.002 55.2668 168.002 55.3598C168.002 55.4528 168.002 55.5458 168.002 55.639C168.002 55.7321 168.002 55.8254 168.002 55.9187C168.002 56.012 168.002 56.1054 168.002 56.1989C168.002 56.2923 168.002 56.3859 168.002 56.4796C168.002 56.5732 168.002 56.6669 168.002 56.7607C168.002 56.8545 168.002 56.9484 168.002 57.0424C168.002 57.1363 168.002 57.2304 168.002 57.3245C168.002 57.4186 168.002 57.5128 168.002 57.6071C168.002 57.7013 168.002 57.7957 168.002 57.8901C168.002 57.9845 168.002 58.079 168.002 58.1736C168.002 58.2682 168.002 58.3628 168.002 58.4575C168.002 58.5522 168.002 58.647 168.002 58.7419C168.002 58.8367 168.002 58.9317 168.002 59.0267C168.002 59.1216 168.002 59.2167 168.002 59.3118C168.002 59.407 168.002 59.5022 168.002 59.5975C168.002 59.6927 168.002 59.7881 168.002 59.8835C168.002 59.9789 168.002 60.0743 168.002 60.1699C168.002 60.2654 168.002 60.361 168.002 60.4567C168.002 60.5523 168.002 60.648 168.002 60.7438C168.002 60.8396 168.002 60.9354 168.002 61.0314C168.002 61.1273 168.002 61.2232 168.002 61.3193C168.002 61.4153 168.002 61.5114 168.002 61.6075C168.002 61.7037 168.002 61.7999 168.002 61.8961C168.002 61.9924 168.002 62.0887 168.002 62.1851C168.002 62.2814 168.002 62.3779 168.002 62.4743C168.002 62.5708 168.002 62.6674 168.002 62.764C168.002 62.8605 168.002 62.9572 168.002 63.0539C168.002 63.1506 168.002 63.2473 168.002 63.3441C168.002 63.4409 168.002 63.5377 168.002 63.6346C168.002 63.7315 168.002 63.8285 168.002 63.9255C168.002 64.0225 168.002 64.1195 168.002 64.2166C168.002 64.3137 168.002 64.4108 168.002 64.508C168.002 64.6052 168.002 64.7024 168.002 64.7996C168.002 64.8969 168.002 64.9942 168.002 65.0916C168.002 65.1889 168.002 65.2863 168.002 65.3838C168.002 65.4812 168.002 65.5787 168.002 65.6762C168.002 65.7737 168.002 65.8713 168.002 65.9689C168.002 66.0665 168.002 66.1641 168.002 66.2618C168.002 66.3595 168.002 66.4572 168.002 66.5549C168.002 66.6527 168.002 66.7505 168.002 66.8483C168.002 66.9461 168.002 67.044 168.002 67.1418C168.002 67.2397 168.002 67.3377 168.002 67.4356C168.002 67.5336 168.002 67.6316 168.002 67.7296C168.002 67.8276 168.002 67.9256 168.002 68.0237C168.002 68.1218 168.002 68.2199 168.002 68.3181C168.002 68.4162 168.002 68.5144 168.002 68.6126C168.002 68.7108 168.002 68.809 168.002 68.9072C168.002 69.0055 168.002 69.1038 168.002 69.2021C168.002 69.3004 168.002 69.3987 168.002 69.497C168.002 69.5954 168.002 69.6938 168.002 69.7921C168.002 69.8905 168.002 69.989 168.002 70.0874C168.002 70.1858 168.002 70.2843 168.002 70.3828C168.002 70.4813 168.002 70.5798 168.002 70.6783C168.002 70.7768 168.002 70.8753 168.002 70.9739C168.002 71.0724 168.002 71.171 168.002 71.2696C168.002 71.3682 168.002 71.4668 168.002 71.5654C168.002 71.664 168.002 71.7626 168.002 71.8613C168.002 71.9599 168.002 72.0586 168.002 72.1573C168.002 72.2559 168.002 72.3546 168.002 72.4533C168.002 72.552 168.002 72.6507 168.002 72.7494C168.002 72.8481 168.002 72.9469 168.002 73.0456C168.002 73.1443 168.002 73.2431 168.002 73.3418C168.002 73.4406 168.002 73.5393 168.002 73.6381C168.002 73.7368 168.002 73.8356 168.002 73.9344C168.002 74.0332 168.002 74.1319 168.002 74.2307C168.002 74.3295 168.002 74.4283 168.002 74.5271C168.002 74.6258 168.002 74.7246 168.002 74.8234C168.002 74.9222 168.002 75.021 168.002 75.1198C168.002 75.2186 168.002 75.3173 168.002 75.4161C168.002 75.5149 168.002 75.6137 168.002 75.7125C168.002 75.8113 168.002 75.91 168.002 76.0088C168.002 76.1076 168.002 76.2063 168.002 76.3051C168.002 76.4039 168.002 76.5026 168.002 76.6014C168.002 76.7001 168.002 76.7989 168.002 76.8976C168.002 76.9963 168.002 77.0951 168.002 77.1938C168.002 77.2925 168.002 77.3912 168.002 77.4899C168.002 77.5886 168.002 77.6873 168.002 77.7859C168.002 77.8846 168.002 77.9833 168.002 78.0819C168.002 78.1806 168.002 78.2792 168.002 78.3778C168.002 78.4764 168.002 78.5751 168.002 78.6736C168.002 78.7722 168.002 78.8708 168.002 78.9694C168.002 79.0679 168.002 79.1665 168.002 79.265C168.002 79.3635 168.002 79.462 168.002 79.5605C168.002 79.659 168.002 79.7574 168.002 79.8559C168.002 79.9543 168.002 80.0527 168.002 80.1511C168.002 80.2495 168.002 80.3479 168.002 80.4463C168.002 80.5446 168.002 80.6429 168.002 80.7412C168.002 80.8395 168.002 80.9378 168.002 81.0361C168.002 81.1343 168.002 81.2326 168.002 81.3308C168.002 81.429 168.002 81.5271 168.002 81.6253C168.002 81.7234 168.002 81.8215 168.002 81.9196C168.002 82.0177 168.002 82.1158 168.002 82.2138C168.002 82.3118 168.002 82.4098 168.002 82.5078C168.002 82.6057 168.002 82.7037 168.002 82.8016C168.002 82.8995 168.002 82.9973 168.002 83.0951C168.002 83.193 168.002 83.2908 168.002 83.3885C168.002 83.4863 168.002 83.584 168.002 83.6817C168.002 83.7794 168.002 83.877 168.002 83.9746C168.002 84.0722 168.002 84.1698 168.002 84.2673C168.002 84.3648 168.002 84.4623 168.002 84.5598C168.002 84.6572 168.002 84.7546 168.002 84.852C168.002 84.9493 168.002 85.0467 168.002 85.1439C168.002 85.2412 168.002 85.3384 168.002 85.4356C168.002 85.5328 168.002 85.6299 168.002 85.727C168.002 85.8241 168.002 85.9212 168.002 86.0182C168.002 86.1152 168.002 86.2121 168.002 86.309C168.002 86.4059 168.002 86.5028 168.002 86.5996C168.002 86.6964 168.002 86.7931 168.002 86.8899C168.002 86.9866 168.002 87.0832 168.002 87.1798C168.002 87.2764 168.002 87.3729 168.002 87.4694C168.002 87.5659 168.002 87.6624 168.002 87.7587C168.002 87.8551 168.002 87.9514 168.002 88.0477C168.002 88.144 168.002 88.2402 168.002 88.3364C168.002 88.4325 168.002 88.5286 168.002 88.6246C168.002 88.7207 168.002 88.8167 168.002 88.9126C168.002 89.0085 168.002 89.1044 168.002 89.2001C168.002 89.2959 168.002 89.3917 168.002 89.4873C168.002 89.583 168.002 89.6786 168.002 89.7742C168.002 89.8697 168.002 89.9652 168.002 90.0606C168.002 90.156 168.002 90.2514 168.002 90.3467C168.002 90.4419 168.002 90.5371 168.002 90.6323C168.002 90.7274 168.002 90.8225 168.002 90.9175C168.002 91.0125 168.002 91.1075 168.002 91.2023C168.002 91.2972 168.002 91.392 168.002 91.4867C168.002 91.5815 168.002 91.6761 168.002 91.7707C168.002 91.8653 168.002 91.9598 168.002 92.0542C168.002 92.1487 168.002 92.243 168.002 92.3373C168.002 92.4316 168.002 92.5258 168.002 92.6199C168.002 92.714 168.002 92.8081 168.002 92.9021C168.002 92.9961 168.002 93.0899 168.002 93.1838C168.002 93.2776 168.002 93.3713 168.002 93.465C168.002 93.5586 168.002 93.6522 168.002 93.7457C168.002 93.8392 168.002 93.9326 168.002 94.0259C168.002 94.1193 168.002 94.2125 168.002 94.3057C168.002 94.3988 168.002 94.4919 168.002 94.5849C168.002 94.6779 168.002 94.7708 168.002 94.8636C168.002 94.9564 168.002 95.0492 168.002 95.1418C168.002 95.2344 168.002 95.327 168.002 95.4195C168.002 95.5119 168.002 95.6043 168.002 95.6966C168.002 95.7888 168.002 95.881 168.002 95.9731C168.002 96.0652 168.002 96.1572 168.002 96.2492C168.002 96.3411 168.002 96.4329 168.002 96.5246C168.002 96.6163 168.002 96.708 168.002 96.7995C168.002 96.891 168.002 96.9825 168.002 97.0738C168.002 97.1651 168.002 97.2564 168.002 97.3475C168.002 97.4387 168.002 97.5297 168.002 97.6207C168.002 97.7116 168.002 97.8025 168.002 97.8932C168.002 97.9839 168.002 98.0746 168.002 98.1651C168.002 98.2557 168.002 98.3461 168.002 98.4364C168.002 98.5268 168.002 98.617 168.002 98.7071C168.002 98.7972 168.002 98.8873 168.002 98.9772C168.002 99.0671 168.002 99.1569 168.002 99.2466C168.002 99.3363 168.002 99.4259 168.002 99.5154C168.002 99.6049 168.002 99.6942 168.002 99.7835C168.002 99.8728 168.002 99.9619 168.002 100.051C168.002 100.14 168.002 100.229 168.002 100.318C168.002 100.407 168.002 100.495 168.002 100.584C168.002 100.672 168.002 100.761 168.002 100.849C168.002 100.938 168.002 101.026 168.002 101.114C168.002 101.202 168.002 101.29 168.002 101.378C168.002 101.466 168.002 101.554 168.002 101.641C168.002 101.729 168.002 101.817 168.002 101.904C168.002 101.991 168.002 102.079 168.002 102.166C168.002 102.253 168.002 102.34 168.002 102.427C168.002 102.514 168.002 102.601 168.002 102.688C168.002 102.774 168.002 102.861 168.002 102.947C168.002 103.034 168.002 103.12 168.002 103.206C168.002 103.292 168.002 103.378 168.002 103.464C168.002 103.55 168.002 103.636 168.002 103.722C168.002 103.807 168.002 103.893 168.002 103.978C168.002 104.064 168.002 104.149 168.002 104.234C168.002 104.319 168.002 104.404 168.002 104.489C168.002 104.574 168.002 104.659 168.002 104.744C168.002 104.828 168.002 104.913 168.002 104.997C168.002 105.081 168.002 105.166 168.002 105.25C168.002 105.334 168.002 105.418 168.002 105.501C168.002 105.585 168.002 105.669 168.002 105.752C168.002 105.836 168.002 105.919 168.002 106.003C168.002 106.086 168.002 106.169 168.002 106.252C168.002 106.335 168.002 106.418 168.002 106.5C168.002 106.583 168.002 106.666 168.002 106.748C168.002 106.83 168.002 106.913 168.002 106.995C168.002 107.077 168.002 107.159 168.002 107.24C168.002 107.322 168.002 107.404 168.002 107.485C168.002 107.567 168.002 107.648 168.002 107.73C168.002 107.811 168.002 107.892 168.002 107.973C168.002 108.054 168.002 108.134 168.002 108.215C168.002 108.296 168.002 108.376 168.002 108.456C168.002 108.537 168.002 108.617 168.002 108.697C168.002 108.777 168.002 108.857 168.002 108.936C168.002 109.016 168.002 109.096 168.002 109.175C168.002 109.254 168.002 109.333 168.002 109.413C168.002 109.492 168.002 109.57 168.002 109.649C168.002 109.728 168.002 109.806 168.002 109.885C168.002 109.963 168.002 110.042 168.002 110.12C168.002 110.198 168.002 110.276 168.002 110.353C168.002 110.431 168.002 110.509 168.002 110.586C168.002 110.664 168.002 110.741 168.002 110.818C168.002 110.895 168.002 110.972 168.002 111.049C168.002 111.126 168.002 111.202 168.002 111.279C168.002 111.355 168.002 111.431 168.002 111.507C168.002 111.584 168.002 111.659 168.002 111.735C168.002 111.811 168.002 111.887 168.002 111.962C168.002 112.037 168.002 112.113 168.002 112.188C168.002 112.263 168.002 112.338 168.002 112.412C168.002 112.487 168.002 112.562 168.002 112.636C168.002 112.71 168.002 112.785 168.002 112.859C168.002 112.933 168.002 113.006 168.002 113.08C168.002 113.154 168.002 113.227 168.002 113.3C168.002 113.374 168.002 113.447 168.002 113.52C168.002 113.593 168.002 113.665 168.002 113.738C168.002 113.811 168.002 113.883 168.002 113.955C168.002 114.027 168.002 114.099 168.002 114.171C168.002 114.243 168.002 114.315 168.002 114.386C168.002 114.458 168.002 114.529 168.002 114.6C168.002 114.671 168.002 114.742 168.002 114.813C168.002 114.883 168.002 114.954 168.002 115.024C168.002 115.095 168.002 115.165 168.002 115.235C168.002 115.305 168.002 115.374 168.002 115.444C168.002 115.513 168.002 115.583 168.002 115.652C168.002 115.721 168.002 115.79 168.002 115.859C168.002 115.928 168.002 115.996 168.002 116.065C168.002 116.133 168.002 116.201 168.002 116.269C168.002 116.337 168.002 116.405 168.002 116.473C168.002 116.54 168.002 116.608 168.002 116.675C168.002 116.742 168.002 116.809 168.002 116.876C168.002 116.943 168.002 117.009 168.002 117.076C168.002 117.142 168.002 117.208 168.002 117.274C168.002 117.34 168.002 117.406 168.002 117.472C168.002 117.537 168.002 117.603 168.002 117.668C168.002 117.733 168.002 117.798 168.002 117.863C168.002 117.927 168.002 117.992 168.002 118.056C168.002 118.121 168.002 118.185 168.002 118.249C168.002 118.312 168.002 118.376 168.002 118.44C168.002 118.503 168.002 118.566 168.002 118.629C168.002 118.693 168.002 118.755 168.002 118.818C168.002 118.881 168.002 118.943 168.002 119.005C168.002 119.067 168.002 119.129 168.002 119.191C168.002 119.253 168.002 119.315 168.002 119.376C168.002 119.437 168.002 119.498 168.002 119.559C168.002 119.62 168.002 119.681 168.002 119.741C168.002 119.802 168.002 119.862 168.002 119.922C168.002 119.982 168.002 120.042 168.002 120.101C168.002 120.161 168.002 120.22 168.002 120.279C168.002 120.338 168.002 120.397 168.002 120.456C168.002 120.515 168.002 120.573 168.002 120.631C168.002 120.69 168.002 120.748 168.002 120.805C168.002 120.863 168.002 120.921 168.002 120.978C168.002 121.035 168.002 121.092 168.002 121.149C168.002 121.206 168.002 121.263 168.002 121.319C168.002 121.375 168.002 121.431 168.002 121.487C168.002 121.543 168.002 121.599 168.002 121.654C168.002 121.71 168.002 121.765 168.002 121.82C168.002 121.875 168.002 121.93 168.002 121.984C168.002 122.039 168.002 122.093 168.002 122.147C168.002 122.201 168.002 122.255 168.002 122.308C168.002 122.362 168.002 122.415 168.002 122.468C168.002 122.521 168.002 122.574 168.002 122.627C168.002 122.679 168.002 122.731 168.002 122.784C168.002 122.836 168.002 122.887 168.002 122.939C168.002 122.991 168.002 123.042 168.002 123.093C168.002 123.144 168.002 123.195 168.002 123.246C168.002 123.296 168.002 123.347 168.002 123.397C168.002 123.447 168.002 123.497 168.002 123.546C168.002 123.596 168.002 123.645 168.002 123.695C168.002 123.744 168.002 123.792 168.002 123.841C168.002 123.89 168.002 123.938 168.002 123.986C168.002 124.034 168.002 124.082 168.002 124.13C168.002 124.177 168.002 124.225 168.002 124.272C168.002 124.319 168.002 124.366 168.002 124.412C168.002 124.459 168.002 124.505 168.002 124.551C168.002 124.597 168.002 124.643 168.002 124.688C168.002 124.734 168.002 124.779 168.002 124.824C168.002 124.869 168.002 124.914 168.002 124.958C168.002 125.003 168.002 125.047 168.002 125.091C168.002 125.135 168.002 125.179 168.002 125.222C168.002 125.266 168.002 125.309 168.002 125.352C168.002 125.395 168.002 125.437 168.002 125.48C168.002 125.522 168.002 125.564 168.002 125.606C168.002 125.648 168.002 125.689 168.002 125.73C168.002 125.772 168.002 125.813 168.002 125.854C168.002 125.894 168.002 125.935 168.002 125.975C168.002 126.015 168.002 126.055 168.002 126.095C168.002 126.134 168.002 126.174 168.002 126.213C168.002 126.252 168.002 126.291 168.002 126.329C168.002 126.368 168.002 126.406 168.002 126.444C168.002 126.482 168.002 126.52 168.002 126.557C168.002 126.595 168.002 126.632 168.002 126.669C168.002 126.705 168.002 126.742 168.002 126.778C168.002 126.815 168.002 126.851 168.002 126.886C168.002 126.922 168.002 126.958 168.002 126.993C168.002 127.028 168.002 127.063 168.002 127.097C168.002 127.132 168.002 127.166 168.002 127.2C168.002 127.234 168.002 127.268 168.002 127.302C168.002 127.335 168.002 127.368 168.002 127.401C168.002 127.434 168.002 127.467 168.002 127.499C168.002 127.531 168.002 127.563 168.002 127.595C168.002 127.627 168.002 127.658 168.002 127.689C168.002 127.72 168.002 127.751 168.002 127.782C168.002 127.812 168.002 127.842 168.002 127.872C168.002 127.902 168.002 127.932 168.002 127.961C168.002 127.991 168.002 128.02 168.002 128.048C168.002 128.077 168.002 128.106 168.002 128.134C168.002 128.162 168.002 128.19 168.002 128.217C168.002 128.245 168.002 128.272 168.002 128.299C168.002 128.326 168.002 128.353 168.002 128.379C168.002 128.405 168.002 128.431 168.002 128.457C168.002 128.483 168.002 128.508 168.002 128.533C168.002 128.558 168.002 128.583 168.002 128.608C168.002 128.632 168.002 128.657 168.002 128.68C168.002 128.704 168.002 128.728 168.002 128.751C168.002 128.774 168.002 128.797 168.002 128.82C168.002 128.843 168.002 128.865 168.002 128.887C168.002 128.909 168.002 128.931 168.002 128.952C168.002 128.974 168.002 128.995 168.002 129.015C168.002 129.036 168.002 129.057 168.002 129.077C168.002 129.097 168.002 129.117 168.002 129.136C168.002 129.156 168.002 129.175 168.002 129.194C168.002 129.213 168.002 129.231 168.002 129.249C168.002 129.268 168.002 129.286 168.002 129.303C168.002 129.321 168.002 129.338 168.002 129.355C168.002 129.372 168.002 129.389 168.002 129.405C168.002 129.421 168.002 129.437 168.002 129.453C168.002 129.468 168.002 129.484 168.002 129.499C168.002 129.514 168.002 129.528 168.002 129.543C168.002 129.557 168.002 129.571 168.002 129.585C168.002 129.598 168.002 129.612 168.002 129.625C168.002 129.638 168.002 129.651 168.002 129.663C168.002 129.675 168.002 129.687 168.002 129.699C168.002 129.711 168.002 129.722 168.002 129.733C168.002 129.744 168.002 129.755 168.002 129.765C168.002 129.775 168.002 129.786 168.002 129.795C168.002 129.805 168.002 129.814 168.002 129.823C168.002 129.832 168.002 129.841 168.002 129.849C168.002 129.858 168.002 129.866 168.002 129.873C168.002 129.881 168.002 129.888 168.002 129.895C168.002 129.902 168.002 129.909 168.002 129.915C168.002 129.921 168.002 129.927 168.002 129.933C168.002 129.938 168.002 129.944 168.002 129.949C168.002 129.953 168.002 129.958 168.002 129.962C168.002 129.966 168.002 129.97 168.002 129.974C168.002 129.977 168.002 129.981 168.002 129.983C168.002 129.986 168.002 129.989 168.002 129.991C168.002 129.993 168.002 129.995 168.002 129.996C168.002 129.997 168.002 129.999 168.002 129.999C168.002 130 168.002 130 172.002 130ZM144.004 43.0003C144.004 55.0002 144.004 82.7502 144.003 107.5C144.003 119.875 144.003 131.5 144.003 140.031C144.003 144.297 144.003 147.789 144.003 150.215C144.003 151.428 144.003 152.374 144.003 153.017C144.002 153.339 144.002 153.585 144.002 153.75C144.002 153.833 144.002 153.895 144.002 153.937C144.002 153.958 144.002 153.974 144.002 153.984C144.002 153.99 144.002 153.994 144.002 153.996C144.002 153.998 144.002 153.999 144.002 153.999C144.002 154 144.002 154 148.002 154C152.002 154 152.002 154 152.002 153.999C152.002 153.999 152.002 153.998 152.002 153.996C152.002 153.994 152.002 153.99 152.002 153.985C152.002 153.974 152.002 153.958 152.002 153.937C152.002 153.895 152.002 153.833 152.002 153.75C152.002 153.585 152.002 153.339 152.002 153.017C152.003 152.374 152.003 151.428 152.003 150.215C152.003 147.789 152.003 144.297 152.003 140.032C152.003 131.5 152.003 119.875 152.003 107.5C152.004 82.7504 152.004 55.0003 152.004 43.0003H144.004ZM176.002 22.0003C176.002 19.6243 175.531 17.3784 174.373 15.5069C173.17 13.5625 171.379 12.2811 169.298 11.7175C165.395 10.6604 161.149 12.2333 157.737 14.5792C150.658 19.4466 144.004 29.6764 144.004 43.0003H152.004C152.004 32.3242 157.35 24.554 162.269 21.1714C164.857 19.3923 166.61 19.2777 167.207 19.4393C167.376 19.4851 167.46 19.5396 167.57 19.7163C167.724 19.9659 168.002 20.6262 168.002 22.0003H176.002Z" fill="#40425E"/>
<path d="M154.005 3.99985V-0.000146627C153.99 -0.000146627 153.975 -5.93662e-05 153.959 0.000114918L154.005 3.99985ZM46.0052 3.99985L45.9919 7.99983L45.996 7.99984L46.0052 3.99985ZM33.2852 9.27986L36.1136 12.1083C36.1181 12.1038 36.1226 12.0992 36.1271 12.0947L33.2852 9.27986ZM9.28516 33.2799L6.44316 30.4651C4.89124 32.032 4.90035 34.5594 6.46354 36.1151C8.02673 37.6708 10.5541 37.6677 12.1136 36.1083L9.28516 33.2799ZM22.0052 27.9998L21.9919 31.9998L22.0052 31.9998L22.0052 27.9998ZM153.959 0.000114918C144.992 0.102664 118.025 0.102782 93.26 0.0770395C80.8863 0.0641768 69.0748 0.0448828 60.3566 0.0288041C55.9975 0.0207648 52.4118 0.0135295 49.916 0.00830412C48.668 0.00569153 47.6926 0.00358129 47.0291 0.00212431C46.6974 0.00139594 46.4437 0.00083065 46.2729 0.00044775C46.1875 0.000256062 46.1228 0.000110149 46.0795 1.21593e-05C46.0579 -3.69549e-05 46.0416 -7.39098e-05 46.0307 -9.87053e-05C46.0252 -0.000111103 46.0211 -0.000120401 46.0184 -0.000126839C46.017 -0.000129938 46.016 -0.000132084 46.0153 -0.000133753C46.0147 -0.000135183 46.0143 -0.000136137 46.0052 3.99985C45.996 7.99984 45.9964 7.99984 45.9971 7.99984C45.9977 7.99985 45.9988 7.99985 46.0002 7.99985C46.0029 7.99986 46.007 7.99987 46.0125 7.99988C46.0234 7.9999 46.0397 7.99994 46.0614 7.99999C46.1048 8.00009 46.1695 8.00024 46.2549 8.00043C46.4258 8.00081 46.6797 8.00138 47.0115 8.0021C47.6753 8.00356 48.651 8.00567 49.8992 8.00829C52.3956 8.01351 55.982 8.02075 60.3418 8.02879C69.0614 8.04487 80.8752 8.06417 93.2517 8.07703C117.988 8.10275 145.02 8.10287 154.051 7.99959L153.959 0.000114918ZM46.0184 -0.000124693C43.1232 -0.00969577 40.255 0.557018 37.5809 1.66699L40.648 9.05572C42.3416 8.35271 44.1582 7.99377 45.9919 7.99983L46.0184 -0.000124693ZM37.5809 1.66699C34.9069 2.77696 32.4805 4.408 30.4432 6.46507L36.1271 12.0947C37.4176 10.7918 38.9543 9.75874 40.648 9.05572L37.5809 1.66699ZM30.4567 6.45143L6.45673 30.4514L12.1136 36.1083L36.1136 12.1083L30.4567 6.45143ZM12.1272 36.0946C13.4176 34.7918 14.9543 33.7587 16.648 33.0557L13.5809 25.667C10.9069 26.777 8.48053 28.408 6.44316 30.4651L12.1272 36.0946ZM16.648 33.0557C18.3416 32.3527 20.1582 31.9938 21.9919 31.9998L22.0184 23.9999C19.1232 23.9903 16.255 24.557 13.5809 25.667L16.648 33.0557ZM133.006 31.9998C146.265 31.9998 157.2 25.407 162.456 18.3997C164.964 15.0551 166.87 10.631 165.487 6.48482C163.921 1.78543 159.172 -0.000146627 154.005 -0.000146627V7.99985C155.855 7.99985 156.898 8.31466 157.414 8.58213C157.845 8.80584 157.883 8.9686 157.898 9.01485C158.016 9.36867 158.047 10.9445 156.055 13.5999C152.311 18.5926 143.747 23.9998 133.006 23.9998V31.9998ZM22.0052 31.9998C63.2752 31.9998 109.006 31.9998 133.006 31.9998V23.9998C109.006 23.9998 63.2752 23.9998 22.0052 23.9999L22.0052 31.9998Z" fill="#40425E"/>
<rect x="4.00391" y="27.9919" width="144.007" height="144.007" rx="20" fill="white" stroke="#40425E" stroke-width="8"/>
</svg>
